<?xml version="1.0" encoding="utf-8"?>
<svg width="380px" height="230px" viewBox="0 0 380 230" version="1.1" xmlns:xlink="http://www.w3.org/1999/xlink" xmlns="http://www.w3.org/2000/svg">
  <path d="M69.7168 229.648C31.2451 229.395 0 197.99 0 159.642C0 126.317 22.9868 98.4619 54.2788 91.3789C53.77 88.5796 53.5147 85.7231 53.5147 82.8198C53.5147 56.5674 74.8726 35.2095 101.125 35.2095C109.845 35.2095 118.203 37.5366 125.495 41.8975C145.476 15.4746 176.307 0 209.956 0C262.544 0 306.871 38.7383 314.736 89.7842C351.134 92.2363 380 122.632 380 159.642C380 197.864 348.904 229.266 310.682 229.643L69.7168 229.648ZM101.125 55.2095C85.9009 55.2095 73.5146 67.5952 73.5146 82.8198C73.5146 87.1631 74.5005 91.3267 76.4448 95.1938C77.9717 98.231 77.8511 101.836 76.1245 104.765C74.3979 107.693 71.3018 109.543 67.9048 109.678C41.0425 110.738 20 132.685 20 159.642C20 187.034 42.3325 209.467 69.7827 209.648L310.583 209.643C337.788 209.375 360 186.944 360 159.642C360 132.062 337.563 109.625 309.983 109.625C308.956 109.625 307.838 109.669 306.468 109.764C303.814 109.949 301.194 109.067 299.191 107.315C297.188 105.563 295.966 103.084 295.795 100.428C292.902 55.3281 255.197 20 209.956 20C179.616 20 152.097 35.5088 136.342 61.4858C134.747 64.1157 132.03 65.8652 128.976 66.23C125.923 66.5903 122.87 65.5332 120.701 63.3521C115.479 58.1011 108.527 55.2095 101.125 55.2095Z" id="Shape" fill="#46A8C7" fill-rule="evenodd" stroke="none" />
</svg>