<?xml version="1.0" encoding="utf-8"?>
<svg width="460px" height="420px" viewBox="0 0 460 420" version="1.1" xmlns:xlink="http://www.w3.org/1999/xlink" xmlns="http://www.w3.org/2000/svg">
  <path d="M156.078 179.903C153.169 179.903 150.286 178.64 148.309 176.206C144.828 171.919 145.481 165.621 149.768 162.14C168.585 146.859 179.377 124.209 179.377 100C179.377 55.8877 143.49 20 99.3774 20C58.5742 20 24.3965 50.5283 19.876 91.0112C19.2632 96.5 14.3188 100.45 8.82813 99.8403C3.33984 99.2271 -0.613281 94.2808 0 88.792C5.65186 38.1724 48.3745 0 99.3774 0C154.518 0 199.377 44.8599 199.377 100C199.377 130.261 185.891 158.569 162.375 177.665C160.522 179.17 158.292 179.903 156.078 179.903L156.078 179.903Z" transform="translate(170.4702 90.09766)" id="Shape" fill="#fdf039" stroke="none" />
  <path d="M10 74C4.47754 74 0 69.5229 0 64L0 10C0 4.47705 4.47754 0 10 0C15.5225 0 20 4.47705 20 10L20 64C20 69.5229 15.5225 74 10 74L10 74Z" transform="translate(259.75 0)" id="Shape" fill="#fdf039" stroke="none" />
  <path d="M64 20L10 20C4.47705 20 0 15.5229 0 10C0 4.47705 4.47705 0 10 0L64 0C69.5229 0 74 4.47705 74 10C74 15.5229 69.5229 20 64 20L64 20Z" transform="translate(79.75 180)" id="Shape" fill="#fdf039" stroke="none" />
  <path d="M64 20L10 20C4.47754 20 0 15.5229 0 10C0 4.47705 4.47754 0 10 0L64 0C69.5225 0 74 4.47705 74 10C74 15.5229 69.5225 20 64 20L64 20Z" transform="translate(385.75 180)" id="Shape" fill="#fdf039" stroke="none" />
  <path d="M7.07129 55.8086C4.51172 55.8086 1.95312 54.8325 0 52.8799C-3.90527 48.9746 -3.90527 42.6426 0 38.7373L38.7373 0C42.6436 -3.90527 48.9736 -3.90527 52.8799 0C56.7852 3.90527 56.7852 10.2373 52.8799 14.1426L14.1426 52.8799C12.1895 54.8325 9.63086 55.8086 7.07129 55.8086L7.07129 55.8086Z" transform="translate(351.2207 55.64941)" id="Shape" fill="#fdf039" stroke="none" />
  <path d="M45.8086 55.8086C43.2495 55.8086 40.6899 54.8325 38.7373 52.8799L0 14.1426C-3.90478 10.2373 -3.90478 3.90527 0 0C3.90527 -3.90527 10.2373 -3.90527 14.1426 0L52.8799 38.7373C56.7847 42.6426 56.7847 48.9746 52.8799 52.8799C50.9272 54.8325 48.3677 55.8086 45.8086 55.8086L45.8086 55.8086Z" transform="translate(135.3994 55.64941)" id="Shape" fill="#fdf039" stroke="none" />
  <path d="M45.8086 55.8086C43.249 55.8086 40.6904 54.8325 38.7373 52.8799L0 14.1426C-3.90527 10.2373 -3.90527 3.90527 0 0C3.90625 -3.90527 10.2363 -3.90527 14.1426 0L52.8799 38.7373C56.7852 42.6426 56.7852 48.9746 52.8799 52.8799C50.9268 54.8325 48.3682 55.8086 45.8086 55.8086L45.8086 55.8086Z" transform="translate(351.2207 271.4707)" id="Shape" fill="#fdf039" stroke="none" />
  <path d="M0 159.642C0 197.99 31.2451 229.395 69.7168 229.648L310.682 229.643C348.904 229.266 380 197.864 380 159.642C380 122.632 351.135 92.2363 314.736 89.7842C306.871 38.7383 262.544 0 209.956 0C176.307 0 145.476 15.4746 125.495 41.8975C118.203 37.5366 109.845 35.2095 101.125 35.2095C74.8726 35.2095 53.5147 56.5674 53.5147 82.8198C53.5147 85.7231 53.77 88.5796 54.2788 91.3789C22.9868 98.4619 0 126.317 0 159.642ZM73.5146 82.8198C73.5146 67.5952 85.9009 55.2095 101.125 55.2095C108.527 55.2095 115.479 58.1011 120.701 63.3521C122.87 65.5332 125.922 66.5903 128.976 66.23C132.03 65.8652 134.747 64.1157 136.342 61.4858C152.097 35.5088 179.616 20 209.956 20C255.197 20 292.902 55.3281 295.796 100.428C295.966 103.084 297.188 105.563 299.191 107.315C301.194 109.068 303.822 109.945 306.469 109.764C307.839 109.669 308.956 109.625 309.983 109.625C337.563 109.625 360 132.062 360 159.642C360 186.944 337.787 209.375 310.583 209.643L69.7827 209.648C42.3325 209.467 20 187.034 20 159.642C20 132.685 41.0425 110.738 67.9048 109.678C71.3018 109.543 74.3979 107.693 76.1245 104.765C77.8511 101.836 77.9717 98.231 76.4448 95.1938C74.5005 91.3267 73.5146 87.1631 73.5146 82.8198Z" transform="translate(0 190.3521)" id="Shape" fill="46A8C7" fill-rule="evenodd" stroke="none" />
</svg>