<?xml version="1.0" encoding="utf-8"?>
<svg width="415px" height="472px" viewBox="0 0 415 472" version="1.1" xmlns:xlink="http://www.w3.org/1999/xlink" xmlns="http://www.w3.org/2000/svg">
  <path d="M145.693 159.705C143.178 159.705 140.667 158.712 138.799 156.743C135.188 152.937 135.347 146.924 139.153 143.313C153.644 129.567 161.624 111.002 161.624 91.0381C161.624 51.3159 129.308 19 89.5859 19C54.6973 19 24.8848 43.873 18.6973 78.1426C17.7646 83.3047 12.8203 86.7339 7.66113 85.8032C2.49707 84.8711 -0.932617 79.9297 0 74.7666C7.82129 31.4438 45.498 0 89.5859 0C139.784 0 180.624 40.8394 180.624 91.0381C180.624 116.268 170.54 139.728 152.229 157.097C150.393 158.84 148.04 159.705 145.693 159.705L145.693 159.705Z" transform="translate(155.3311 72.67139)" id="Shape" fill="#fdf039" stroke="none" />
  <path d="M19.291 64.7036C14.9209 64.7036 10.9873 61.6709 10.0186 57.2266L0 11.3066C-1.11914 6.18066 2.12988 1.11865 7.25586 0C12.3916 -1.11963 17.4453 2.13135 18.5625 7.25684L28.5811 53.1768C29.7002 58.3027 26.4512 63.3647 21.3252 64.4834C20.6426 64.6323 19.9609 64.7036 19.291 64.7036L19.291 64.7036Z" transform="translate(197.4697 0)" id="Shape" fill="#fdf039" stroke="none" />
  <path d="M9.27246 29.4414C4.90234 29.4414 0.96875 26.4087 0 21.9644C-1.11914 16.8384 2.12988 11.7764 7.25586 10.6577L56.1064 0C61.2432 -1.11963 66.2959 2.13135 67.4131 7.25684C68.5322 12.3828 65.2832 17.4448 60.1572 18.5635L11.3066 29.2212C10.624 29.3701 9.94238 29.4414 9.27246 29.4414L9.27246 29.4414Z" transform="translate(347.1201 124.0396)" id="Shape" fill="#fdf039" stroke="none" />
  <path d="M7.98633 59.2651C6.22949 59.2651 4.45215 58.7788 2.86328 57.7593C-1.55176 54.9253 -2.83398 49.0483 0 44.6328L26.8086 2.86377C29.6426 -1.55176 35.5186 -2.8335 39.9355 0C44.3506 2.83398 45.6328 8.71094 42.7988 13.1265L15.9902 54.8955C14.1758 57.7227 11.1133 59.2651 7.98633 59.2651L7.98633 59.2651Z" transform="translate(297.2783 21.46826)" id="Shape" fill="#fdf039" stroke="none" />
  <path d="M49.7559 44.3042C47.999 44.3042 46.2217 43.8179 44.6338 42.7983L2.86426 15.9902C-1.55176 13.1563 -2.83398 7.2793 0 2.86377C2.83398 -1.55176 8.71094 -2.8335 13.126 0L54.8955 26.8081C59.3115 29.6421 60.5938 35.519 57.7598 39.9346C55.9453 42.7617 52.8828 44.3042 49.7559 44.3042L49.7559 44.3042Z" transform="translate(98.76172 70.62646)" id="Shape" fill="#fdf039" stroke="none" />
  <path d="M49.7549 44.3042C47.998 44.3042 46.2207 43.8179 44.6318 42.7983L2.86328 15.9902C-1.55176 13.1563 -2.83398 7.2793 0 2.86377C2.83398 -1.55176 8.70996 -2.83496 13.127 0L54.8955 26.8081C59.3105 29.6421 60.5928 35.519 57.7588 39.9346C55.9443 42.7617 52.8818 44.3042 49.7549 44.3042L49.7549 44.3042Z" transform="translate(330.499 220.1982)" id="Shape" fill="#fdf039" stroke="none" />
  <path d="M0 145.072C0 180.057 28.5039 208.706 63.6025 208.937L281.917 208.932C316.785 208.588 345.153 179.941 345.153 145.072C345.153 111.428 319.007 83.7759 285.966 81.3691C278.663 35.0796 238.4 0 190.656 0C160.165 0 132.216 13.9624 114.022 37.8203C107.43 33.958 99.9033 31.8994 92.0576 31.8994C68.0303 31.8994 48.4834 51.4468 48.4834 75.4736C48.4834 77.9878 48.6924 80.4634 49.1094 82.8926C20.7705 89.5029 0 114.817 0 145.072ZM67.4834 75.4736C67.4834 61.9233 78.5078 50.8994 92.0576 50.8994C98.6445 50.8994 104.833 53.4731 109.481 58.147C111.541 60.2178 114.439 61.2251 117.343 60.8804C120.244 60.5342 122.824 58.8721 124.34 56.374C138.533 32.9717 163.325 19 190.656 19C231.413 19 265.38 50.8257 267.986 91.4541C268.148 93.9771 269.309 96.3316 271.212 97.9961C273.113 99.6602 275.594 100.503 278.124 100.323C279.352 100.238 280.354 100.199 281.279 100.199C306.022 100.199 326.153 120.329 326.153 145.072C326.153 169.567 306.225 189.692 281.823 189.933L63.665 189.937C39.0371 189.775 19 169.648 19 145.072C19 120.888 37.8779 101.198 61.9785 100.246C65.2061 100.119 68.1475 98.3604 69.7871 95.5781C71.4277 92.7959 71.542 89.3711 70.0908 86.4854C68.3604 83.0449 67.4834 79.3398 67.4834 75.4736Z" transform="translate(0 163.4995)" id="Shape" fill="#46A8C7" fill-rule="evenodd" stroke="none" />
  <path d="M6.7207 38.8853C4.28809 38.8853 1.85547 37.9565 0 36.0996C-3.70801 32.3877 -3.70508 26.3726 0.00683594 22.6646L22.6943 0C26.4063 -3.70752 32.4209 -3.70508 36.1289 0.00634766C39.8369 3.71826 39.834 9.7334 36.1221 13.4414L13.4346 36.106C11.5801 37.959 9.15039 38.8853 6.7207 38.8853L6.7207 38.8853Z" transform="translate(140.2236 432.8125)" id="Shape" fill="#46A8C7" stroke="none" />
  <path d="M6.7207 30.5142C4.28809 30.5142 1.85547 29.5854 0 27.728C-3.70801 24.0161 -3.70508 18.0015 0.00683594 14.293L14.3145 0C18.0254 -3.70703 24.04 -3.70459 27.749 0.00732422C31.457 3.71924 31.4541 9.73389 27.7422 13.4424L13.4346 27.7353C11.5801 29.5879 9.15039 30.5142 6.7207 30.5142L6.7207 30.5142Z" transform="translate(61.40332 389.543)" id="Shape" fill="#46A8C7" stroke="none" />
  <path d="M6.7207 30.5137C4.28809 30.5137 1.85547 29.5854 0 27.728C-3.70801 24.0161 -3.70508 18.001 0.00683594 14.293L14.3135 0C18.0254 -3.70703 24.04 -3.70557 27.748 0.00634766C31.4561 3.71826 31.4531 9.7334 27.7412 13.4414L13.4346 27.7344C11.5801 29.5869 9.15039 30.5137 6.7207 30.5137L6.7207 30.5137Z" transform="translate(187.335 389.5435)" id="Shape" fill="#46A8C7" stroke="none" />
  <path d="M6.72168 53.312C4.28809 53.312 1.85547 52.3828 0 50.5254C-3.70801 46.813 -3.7041 40.7979 0.00878906 37.0903L37.1465 0C40.8584 -3.70801 46.873 -3.70361 50.5811 0.00830078C54.2891 3.7207 54.2852 9.73584 50.5723 13.4434L13.4346 50.5337C11.5801 52.3862 9.15137 53.312 6.72168 53.312L6.72168 53.312Z" transform="translate(228.1035 389.5425)" id="Shape" fill="#46A8C7" stroke="none" />
  <path d="M6.7207 63.2769C4.28809 63.2769 1.85547 62.3481 0 60.4912C-3.70801 56.7793 -3.70508 50.7642 0.00683594 47.0562L47.1104 0C50.8223 -3.70801 56.8369 -3.70459 60.5449 0.00634766C64.2529 3.71826 64.25 9.7334 60.5381 13.4414L13.4346 60.4976C11.5801 62.3506 9.15039 63.2769 6.7207 63.2769L6.7207 63.2769Z" transform="translate(91.30078 389.5435)" id="Shape" fill="#46A8C7" stroke="none" />
</svg>