<?xml version="1.0" encoding="utf-8"?>
<svg width="381px" height="348px" viewBox="0 0 381 348" version="1.1" xmlns:xlink="http://www.w3.org/1999/xlink" xmlns="http://www.w3.org/2000/svg">
  <path d="M8.65283 53.8447C5.2085 53.8447 1.85645 52.0635 0 48.8711C-2.77734 44.0977 -1.15869 37.9766 3.61523 35.1992L64.1216 0C68.894 -2.7793 75.0166 -1.15918 77.7935 3.61523C80.5708 8.38867 78.9521 14.5098 74.1782 17.2871L13.6719 52.4863C12.0903 53.4072 10.3599 53.8447 8.65283 53.8447L8.65283 53.8447Z" transform="translate(106.0566 211.3516)" id="Shape" fill="#46A8C7" stroke="none" />
  <path d="M70.3032 52.1816C68.6919 52.1816 67.0576 51.791 65.542 50.9688L4.01904 17.5781C-0.834961 14.9434 -2.63428 8.87305 0 4.01855C2.63477 -0.834961 8.70508 -2.63281 13.5591 0L75.082 33.3906C79.936 36.0254 81.7354 42.0957 79.1011 46.9502C77.2891 50.2881 73.8521 52.1816 70.3032 52.1816L70.3032 52.1816Z" transform="translate(105.4028 212.1104)" id="Shape" fill="#46A8C7" stroke="none" />
  <path d="M10 89C9.99805 89 9.99707 89 9.99512 89C4.47217 89 -0.00292969 84.29 0 78.7676L0.0351563 9.96973C0.0380859 4.44824 4.51514 0 10.0352 0C10.0371 0 10.0381 0 10.04 0C15.563 0 20.0381 4.34326 20.0352 9.86572L20 78.8469C19.9971 84.3684 15.52 89 10 89L10 89Z" transform="translate(134.9355 193.4619)" id="Shape" fill="#46A8C7" stroke="none" />
  <path d="M8.65283 53.8447C5.2085 53.8447 1.85645 52.0635 0 48.8711C-2.77734 44.0977 -1.15869 37.9766 3.61523 35.1992L64.1216 0C68.8936 -2.7793 75.0161 -1.16016 77.7935 3.61523C80.5708 8.38867 78.9521 14.5098 74.1782 17.2871L13.6719 52.4863C12.0903 53.4072 10.3599 53.8447 8.65283 53.8447L8.65283 53.8447Z" transform="translate(201.0566 177.3516)" id="Shape" fill="#46A8C7" stroke="none" />
  <path d="M70.3032 52.1816C68.6919 52.1816 67.0576 51.791 65.542 50.9688L4.01904 17.5781C-0.834961 14.9434 -2.63428 8.87305 0 4.01855C2.63477 -0.834961 8.70508 -2.63379 13.5591 0L75.082 33.3906C79.936 36.0254 81.7354 42.0957 79.1011 46.9502C77.2891 50.2881 73.8521 52.1816 70.3032 52.1816L70.3032 52.1816Z" transform="translate(200.4028 178.1104)" id="Shape" fill="#46A8C7" stroke="none" />
  <path d="M10 89C9.99805 89 9.99707 89 9.99512 89C4.47217 89 -0.00292969 84.29 0 78.7676L0.0351563 9.96973C0.0380859 4.44824 4.51514 0 10.0352 0C10.0371 0 10.0381 0 10.04 0C15.563 0 20.0381 4.34326 20.0352 9.86572L20 78.8469C19.9971 84.3684 15.52 89 10 89L10 89Z" transform="translate(229.9355 159.4619)" id="Shape" fill="#46A8C7" stroke="none" />
  <path d="M7.07471 42.0908C4.51367 42.0908 1.95313 41.1133 0 39.1582C-3.90332 35.251 -3.8999 28.9189 0.00732422 25.0166L25.0493 0C28.9565 -3.90332 35.2881 -3.90039 39.1914 0.00683594C43.0947 3.91406 43.0913 10.2461 39.1841 14.1484L14.1421 39.165C12.1899 41.1152 9.63184 42.0908 7.07471 42.0908L7.07471 42.0908Z" transform="translate(120.8823 305.3105)" id="Shape" fill="#46A8C7" stroke="none" />
  <path d="M7.07471 32.8506C4.51367 32.8506 1.95312 31.873 0 29.918C-3.90332 26.0107 -3.8999 19.6797 0.00732422 15.7764L15.7993 0C19.7065 -3.90234 26.0381 -3.90039 29.9414 0.00683594C33.8447 3.91406 33.8413 10.2451 29.9341 14.1484L14.1421 29.9248C12.1899 31.875 9.63232 32.8506 7.07471 32.8506L7.07471 32.8506Z" transform="translate(71.88232 281.5508)" id="Shape" fill="#46A8C7" stroke="none" />
  <path d="M7.07471 32.8506C4.51367 32.8506 1.95312 31.873 0 29.918C-3.90332 26.0107 -3.8999 19.6797 0.00732422 15.7764L15.7993 0C19.707 -3.90234 26.0386 -3.90039 29.9414 0.00683594C33.8447 3.91406 33.8413 10.2451 29.9341 14.1484L14.1421 29.9248C12.1899 31.875 9.63232 32.8506 7.07471 32.8506L7.07471 32.8506Z" transform="translate(186.8823 266.5508)" id="Shape" fill="#46A8C7" stroke="none" />
  <path d="M7.07471 69.0137C4.51367 69.0137 1.95313 68.0361 0 66.0811C-3.90332 62.1738 -3.8999 55.8428 0.00732422 51.9395L51.9995 0C55.9067 -3.90332 62.2383 -3.90039 66.1416 0.00683594C70.0449 3.91406 70.0415 10.2451 66.1343 14.1484L14.1421 66.0879C12.1899 68.0381 9.63184 69.0137 7.07471 69.0137L7.07471 69.0137Z" transform="translate(227.8823 248.3877)" id="Shape" fill="#46A8C7" stroke="none" />
  <path d="M311.079 229.553L300.995 229.549C295.472 229.547 290.997 225.067 290.999 219.545C291.001 214.023 295.478 209.549 300.999 209.549C301 209.549 301.001 209.549 301.002 209.549L311.034 209.553C324.248 209.409 336.619 204.167 345.873 194.787C355.143 185.389 360.249 172.893 360.249 159.6C360.249 132.034 337.755 109.607 310.107 109.607C308.846 109.607 307.461 109.693 306.529 109.758C303.876 109.951 301.256 109.062 299.252 107.309C297.25 105.557 296.027 103.078 295.857 100.423C292.964 55.3262 255.245 20 209.986 20C179.638 20 152.113 35.5098 136.356 61.4893C134.762 64.1191 132.045 65.8691 128.991 66.2334C125.937 66.5938 122.885 65.5361 120.716 63.3555C115.495 58.1055 108.54 55.2148 101.132 55.2148C85.9053 55.2148 73.5176 67.6006 73.5176 82.8252C73.5176 87.1719 74.5024 91.335 76.4453 95.1992C77.9727 98.2363 77.8521 101.842 76.1255 104.771C74.3989 107.698 71.3027 109.55 67.9058 109.684C41.043 110.744 20 132.649 20 159.552C20 187.072 42.3022 209.462 69.7158 209.462L81.999 209.462C87.522 209.462 91.999 213.939 91.999 219.462C91.999 224.984 87.522 229.462 81.999 229.462L69.7158 229.462C31.2744 229.462 0 198.101 0 159.552C0 126.275 22.9883 98.457 54.2808 91.3828C53.7729 88.585 53.5176 85.7275 53.5176 82.8252C53.5176 56.5723 74.8774 35.2148 101.132 35.2148C109.857 35.2148 118.217 37.541 125.509 41.9014C145.493 15.4766 176.33 0 209.986 0C262.584 0 306.92 38.7295 314.794 89.7617C351.294 92.1758 380.249 122.577 380.249 159.6C380.249 178.183 373.097 195.667 360.111 208.832C347.11 222.011 329.733 229.37 311.181 229.552C311.147 229.553 311.113 229.553 311.079 229.553L311.079 229.553Z" id="Shape" fill="#46A8C7" stroke="none" />
</svg>