<?xml version="1.0" encoding="utf-8"?>
<svg width="380px" height="337px" viewBox="0 0 380 337" version="1.1" xmlns:xlink="http://www.w3.org/1999/xlink" xmlns="http://www.w3.org/2000/svg">
  <path d="M299.996 229.549L310.58 229.553C310.614 229.553 310.648 229.553 310.682 229.552C348.904 229.177 380 197.796 380 159.6C380 122.6 351.136 92.2144 314.734 89.7661C306.865 38.7285 262.541 0 209.956 0C176.309 0 145.477 15.4766 125.495 41.9014C118.203 37.5405 109.846 35.2144 101.125 35.2144C74.8726 35.2144 53.5147 56.5728 53.5147 82.8257C53.5147 85.728 53.7705 88.5845 54.2788 91.3833C22.9863 98.4575 0 126.275 0 159.551C0 198.101 31.2749 229.462 69.7168 229.462L299.996 229.549ZM310.535 209.553L300.003 209.549L80 209.462L69.7168 209.462C42.3027 209.462 20 187.072 20 159.551C20 132.649 41.0425 110.744 67.9048 109.684C71.3018 109.549 74.3979 107.699 76.1245 104.771C77.8511 101.842 77.9717 98.2368 76.4448 95.1997C74.5005 91.3325 73.5146 87.1694 73.5146 82.8257C73.5146 67.6006 85.9009 55.2144 101.125 55.2144C108.528 55.2144 115.48 58.1055 120.701 63.3555C122.87 65.5366 125.921 66.5933 128.976 66.2334C132.03 65.8687 134.747 64.1191 136.342 61.4893C152.098 35.5103 179.617 20 209.956 20C255.197 20 292.903 55.3257 295.795 100.422C295.966 103.078 297.188 105.557 299.191 107.309C301.194 109.062 303.816 109.945 306.468 109.758C307.545 109.684 308.805 109.607 309.983 109.607C337.563 109.607 360 132.034 360 159.6C360 186.859 337.815 209.258 310.535 209.553Z" id="Shape" fill="#46A8C7" fill-rule="evenodd" stroke="none" />
  <path d="M7.07471 42.0908C4.51367 42.0908 1.95313 41.1133 0 39.1582C-3.90332 35.251 -3.8999 28.9189 0.00732422 25.0166L25.0493 0C28.957 -3.90332 35.2886 -3.90039 39.1914 0.00683594C43.0947 3.91406 43.0913 10.2461 39.1841 14.1484L14.1421 39.165C12.1899 41.1152 9.63184 42.0908 7.07471 42.0908L7.07471 42.0908Z" transform="translate(147.8833 294.3105)" id="Shape" fill="#46A8C7" stroke="none" />
  <path d="M7.07471 32.8506C4.51367 32.8506 1.95312 31.873 0 29.918C-3.90332 26.0107 -3.8999 19.6797 0.00732422 15.7764L15.7993 0C19.7065 -3.90332 26.0381 -3.90039 29.9414 0.00683594C33.8447 3.91406 33.8413 10.2451 29.9341 14.1484L14.1421 29.9248C12.1899 31.875 9.63232 32.8506 7.07471 32.8506L7.07471 32.8506Z" transform="translate(60.8833 246.5508)" id="Shape" fill="#46A8C7" stroke="none" />
  <path d="M7.07471 32.8506C4.51367 32.8506 1.95312 31.873 0 29.918C-3.90332 26.0107 -3.8999 19.6797 0.00732422 15.7764L15.7993 0C19.7065 -3.90332 26.0381 -3.90039 29.9414 0.00683594C33.8447 3.91406 33.8413 10.2451 29.9341 14.1484L14.1421 29.9248C12.1899 31.875 9.63232 32.8506 7.07471 32.8506L7.07471 32.8506Z" transform="translate(199.8833 246.5508)" id="Shape" fill="#46A8C7" stroke="none" />
  <path d="M7.07568 58.0146C4.51416 58.0146 1.95313 57.0371 0 55.0811C-3.90283 51.1738 -3.89844 44.8418 0.00927734 40.9395L41.0015 0C44.9092 -3.90332 51.2407 -3.89941 55.1436 0.00878906C59.0464 3.91602 59.042 10.248 55.1343 14.1504L14.1421 55.0898C12.1899 57.04 9.63281 58.0146 7.07568 58.0146L7.07568 58.0146Z" transform="translate(244.8823 246.5498)" id="Shape" fill="#46A8C7" stroke="none" />
  <path d="M7.07471 69.0137C4.51367 69.0137 1.95313 68.0361 0 66.0811C-3.90332 62.1738 -3.8999 55.8428 0.00732422 51.9395L51.9995 0C55.9067 -3.90332 62.2383 -3.90039 66.1416 0.00683594C70.0449 3.91406 70.0415 10.2451 66.1343 14.1484L14.1421 66.0879C12.1899 68.0381 9.63184 69.0137 7.07471 69.0137L7.07471 69.0137Z" transform="translate(93.8833 246.5508)" id="Shape" fill="#46A8C7" stroke="none" />
</svg>