<?xml version="1.0" encoding="utf-8"?>
<svg width="380px" height="384px" viewBox="0 0 380 384" version="1.1" xmlns:xlink="http://www.w3.org/1999/xlink" xmlns="http://www.w3.org/2000/svg">
  <path d="M299.995 229.549L310.579 229.553C310.613 229.553 310.647 229.553 310.682 229.552C348.903 229.177 380 197.796 380 159.6C380 122.6 351.137 92.2144 314.734 89.7661C306.865 38.7285 262.54 0 209.956 0C176.309 0 145.477 15.4766 125.495 41.9014C118.203 37.5405 109.846 35.2144 101.125 35.2144C74.8726 35.2144 53.5147 56.5728 53.5147 82.8257C53.5147 85.728 53.7705 88.5845 54.2788 91.3833C22.9863 98.4575 0 126.275 0 159.551C0 198.101 31.2749 229.462 69.7168 229.462L299.995 229.549ZM310.534 209.553L300.003 209.549L80 209.462L69.7168 209.462C42.3027 209.462 20 187.072 20 159.551C20 132.649 41.0425 110.744 67.9048 109.684C71.3018 109.549 74.3979 107.699 76.1245 104.771C77.8511 101.842 77.9717 98.2368 76.4448 95.1997C74.5005 91.3325 73.5146 87.1694 73.5146 82.8257C73.5146 67.6006 85.9009 55.2144 101.125 55.2144C108.528 55.2144 115.48 58.1055 120.701 63.3555C122.87 65.5366 125.924 66.5957 128.976 66.2334C132.03 65.8687 134.747 64.1191 136.342 61.4893C152.098 35.5103 179.617 20 209.956 20C255.197 20 292.902 55.3257 295.796 100.422C295.966 103.078 297.188 105.557 299.191 107.309C301.195 109.062 303.826 109.94 306.469 109.758C307.545 109.684 308.805 109.607 309.983 109.607C337.563 109.607 360 132.034 360 159.6C360 186.859 337.814 209.258 310.534 209.553Z" id="Shape" fill="#46A8C7" fill-rule="evenodd" stroke="none" />
  <path d="M7.07471 78.915C4.51367 78.915 1.95313 77.9375 0 75.9824C-3.90332 72.0752 -3.8999 65.7441 0.00732422 61.8408L61.9106 0C65.8179 -3.90234 72.1494 -3.90039 76.0527 0.00683594C79.9561 3.91406 79.9526 10.2451 76.0454 14.1484L14.1421 75.9893C12.1899 77.9395 9.63232 78.915 7.07471 78.915L7.07471 78.915Z" transform="translate(86.92773 285.6006)" id="Shape" fill="#46A8C7" stroke="none" />
  <path d="M68.9155 78.9775C66.3545 78.9775 63.7939 78 61.8408 76.0449L0 14.1416C-3.90332 10.2344 -3.8999 3.90332 0.00732422 0C3.91504 -3.90234 10.2466 -3.90039 14.1494 0.00683594L75.9902 61.9102C79.8936 65.8174 79.8901 72.1484 75.9829 76.0518C74.0308 78.002 71.4731 78.9775 68.9155 78.9775L68.9155 78.9775Z" transform="translate(86.95898 285.5693)" id="Shape" fill="#46A8C7" stroke="none" />
  <path d="M110 20C109.998 20 109.997 20 109.995 20L9.99512 20.0293C4.47217 20.0264 -0.00292969 15.5322 0 10.0098C0.00292969 4.48828 4.47949 0 10 0C10.0015 0 10.0034 0 10.0049 0L110.005 0.104004C115.528 0.106934 120.003 4.53442 120 10.0569C119.997 15.5774 115.52 20 110 20L110 20Z" transform="translate(64.9541 313.4619)" id="Shape" fill="#46A8C7" stroke="none" />
  <path d="M10 120C9.99805 120 9.99707 120 9.99512 120C4.47217 120 -0.00292969 115.584 0 110.062L0.0507812 10.0283C0.0537109 4.50684 4.53076 0 10.0508 0C10.0527 0 10.0537 0 10.0557 0C15.5786 0 20.0537 4.54883 20.0508 10.0713L20 110.038C19.9971 115.56 15.52 120 10 120L10 120Z" transform="translate(114.9287 263.4619)" id="Shape" fill="#46A8C7" stroke="none" />
  <path d="M8.65332 53.8447C5.20801 53.8447 1.85645 52.0635 0 48.8711C-2.77734 44.0977 -1.15918 37.9766 3.61523 35.1992L64.1211 0C68.8955 -2.78125 75.0166 -1.15918 77.793 3.61523C80.5703 8.38867 78.9521 14.5098 74.1777 17.2871L13.6719 52.4863C12.0898 53.4072 10.3604 53.8447 8.65332 53.8447L8.65332 53.8447Z" transform="translate(224.0576 266.3516)" id="Shape" fill="#46A8C7" stroke="none" />
  <path d="M70.3037 52.1816C68.6924 52.1816 67.0586 51.791 65.542 50.9688L4.01855 17.5781C-0.834961 14.9434 -2.63477 8.87305 0 4.01855C2.63379 -0.834961 8.70313 -2.63379 13.5596 0L75.083 33.3906C79.9365 36.0254 81.7363 42.0957 79.1016 46.9502C77.29 50.2881 73.8525 52.1816 70.3037 52.1816L70.3037 52.1816Z" transform="translate(223.4033 267.1104)" id="Shape" fill="#46A8C7" stroke="none" />
  <path d="M10 89C9.99805 89 9.99707 89 9.99512 89C4.47168 89 -0.00292969 84.29 0 78.7676L0.0351563 9.96973C0.0380859 4.44824 4.51465 0 10.0352 0C10.0371 0 10.0381 0 10.04 0C15.5635 0 20.0381 4.34326 20.0352 9.86572L20 78.8469C19.9971 84.3684 15.5205 89 10 89L10 89Z" transform="translate(252.9365 248.4619)" id="Shape" fill="#46A8C7" stroke="none" />
</svg>