<?xml version="1.0" encoding="utf-8"?>
<svg width="380px" height="380px" viewBox="0 0 380 380" version="1.1" xmlns:xlink="http://www.w3.org/1999/xlink" xmlns="http://www.w3.org/2000/svg">
  <path d="M0 100C0 155.14 44.8599 200 100 200C155.14 200 200 155.14 200 100C200 44.8599 155.14 0 100 0C44.8599 0 0 44.8599 0 100ZM20 100C20 55.8877 55.8877 20 100 20C144.112 20 180 55.8877 180 100C180 144.112 144.112 180 100 180C55.8877 180 20 144.112 20 100Z" transform="translate(90.09766 90.09766)" id="Shape" fill-rule="evenodd" fill="#fdf039" stroke="none" />
  <path d="M10 74C4.47705 74 0 69.5229 0 64L0 10C0 4.47705 4.47705 0 10 0C15.5229 0 20 4.47705 20 10L20 64C20 69.5229 15.5229 74 10 74L10 74Z" transform="translate(180 0)" id="Shape" fill="#fdf039" stroke="none" />
  <path d="M10 74C4.47705 74 0 69.5229 0 64L0 10C0 4.47705 4.47705 0 10 0C15.5229 0 20 4.47705 20 10L20 64C20 69.5229 15.5229 74 10 74L10 74Z" transform="translate(180 306)" id="Shape" fill="#fdf039" stroke="none" />
  <path d="M64 20L10 20C4.47705 20 0 15.5229 0 10C0 4.47705 4.47705 0 10 0L64 0C69.5229 0 74 4.47705 74 10C74 15.5229 69.5229 20 64 20L64 20Z" transform="translate(0 180)" id="Shape" fill="#fdf039" stroke="none" />
  <path d="M64 20L10 20C4.47705 20 0 15.5229 0 10C0 4.47705 4.47705 0 10 0L64 0C69.5229 0 74 4.47705 74 10C74 15.5229 69.5229 20 64 20L64 20Z" transform="translate(306 180)" id="Shape" fill="#fdf039" stroke="none" />
  <path d="M7.07129 55.8086C4.51221 55.8086 1.95264 54.8325 0 52.8799C-3.90478 48.9746 -3.90478 42.6426 0 38.7373L38.7373 0C42.6426 -3.90527 48.9746 -3.90527 52.8799 0C56.7847 3.90527 56.7847 10.2373 52.8799 14.1426L14.1426 52.8799C12.1899 54.8325 9.63037 55.8086 7.07129 55.8086L7.07129 55.8086Z" transform="translate(271.4707 55.64941)" id="Shape" fill="#fdf039" stroke="none" />
  <path d="M7.07129 55.8086C4.51221 55.8086 1.95264 54.8325 0 52.8799C-3.90478 48.9746 -3.90478 42.6426 0 38.7373L38.7373 0C42.6426 -3.90527 48.9746 -3.90527 52.8799 0C56.7847 3.90527 56.7847 10.2373 52.8799 14.1426L14.1426 52.8799C12.1899 54.8325 9.63037 55.8086 7.07129 55.8086L7.07129 55.8086Z" transform="translate(55.64941 271.4707)" id="Shape" fill="#fdf039" stroke="none" />
  <path d="M45.8086 55.8086C43.2495 55.8086 40.6899 54.8325 38.7373 52.8799L0 14.1426C-3.90478 10.2373 -3.90478 3.90527 0 0C3.90527 -3.90527 10.2373 -3.90527 14.1426 0L52.8799 38.7373C56.7847 42.6426 56.7847 48.9746 52.8799 52.8799C50.9272 54.8325 48.3677 55.8086 45.8086 55.8086L45.8086 55.8086Z" transform="translate(55.64941 55.64941)" id="Shape" fill="#fdf039" stroke="none" />
  <path d="M45.8086 55.8086C43.2495 55.8086 40.6899 54.8325 38.7373 52.8799L0 14.1426C-3.90478 10.2373 -3.90478 3.90527 0 0C3.90527 -3.90527 10.2373 -3.90527 14.1426 0L52.8799 38.7373C56.7847 42.6426 56.7847 48.9746 52.8799 52.8799C50.9272 54.8325 48.3677 55.8086 45.8086 55.8086L45.8086 55.8086Z" transform="translate(271.4707 271.4707)" id="Shape" fill="#fdf039" stroke="none" />
</svg>